<?xml version="1.0" standalone="no"?>
<!DOCTYPE svg PUBLIC "-//W3C//DTD SVG 20010904//EN"
 "http://www.w3.org/TR/2001/REC-SVG-20010904/DTD/svg10.dtd">
<svg version="1.0" xmlns="http://www.w3.org/2000/svg"
 width="260.000000pt" height="260.000000pt" viewBox="0 0 260.000000 260.000000"
 preserveAspectRatio="xMidYMid meet">
<metadata>
Created by potrace 1.14, written by Peter Selinger 2001-2017
</metadata>
<g transform="translate(0.000000,260.000000) scale(0.100000,-0.100000)"
fill="#000000" stroke="none">
<path d="M1093 1635 c-136 -38 -209 -138 -220 -300 -12 -165 51 -293 171 -347
43 -19 68 -23 156 -23 95 0 111 3 162 28 110 54 161 151 162 307 0 66 -5 111
-18 147 -23 70 -91 144 -158 173 -67 29 -183 36 -255 15z m196 -73 c83 -42
128 -156 117 -297 -7 -91 -41 -173 -84 -204 -65 -46 -172 -49 -235 -7 -17 12
-45 46 -62 76 -28 52 -30 61 -30 171 0 109 2 119 30 174 23 46 40 64 74 82 55
29 140 31 190 5z"/>
<path d="M140 1616 c0 -21 5 -25 38 -28 l37 -3 3 -282 2 -282 -37 -3 c-31 -2
-39 -7 -41 -25 -3 -23 -3 -23 137 -23 l141 0 0 24 c0 21 -5 25 -37 28 l-38 3
-3 133 -3 133 153 -3 153 -3 3 -110 c4 -145 1 -155 -43 -155 -31 0 -35 -3 -35
-25 l0 -25 135 0 135 0 0 24 c0 21 -5 25 -37 28 l-38 3 -3 274 c-3 296 -3 291
51 291 22 0 27 4 27 25 l0 25 -135 0 -135 0 0 -25 c0 -21 5 -25 29 -25 46 0
52 -17 49 -131 l-3 -104 -152 -3 -153 -3 0 115 c0 122 2 126 56 126 19 0 24 5
24 25 l0 25 -140 0 -140 0 0 -24z"/>
<path d="M1510 1615 c0 -20 5 -25 24 -25 13 0 29 -6 35 -14 6 -7 50 -146 97
-307 47 -161 88 -297 90 -301 3 -4 22 -8 44 -8 34 0 39 4 50 33 6 17 38 108
71 201 32 93 61 171 63 174 3 2 35 -89 72 -202 l68 -206 36 0 37 0 83 293 c46
160 89 302 97 315 9 15 23 22 43 22 25 0 30 4 30 25 l0 25 -115 0 -115 0 0
-25 c0 -19 5 -25 23 -25 46 0 46 -8 -13 -235 -32 -121 -60 -213 -64 -205 -25
65 -126 416 -122 426 3 8 17 14 31 14 20 0 25 5 25 25 l0 25 -125 0 -125 0 0
-25 c0 -20 5 -25 24 -25 32 0 54 -23 62 -66 5 -27 -6 -69 -51 -202 -52 -151
-75 -204 -75 -176 0 5 -25 103 -55 218 -29 116 -52 213 -49 218 3 4 18 8 35 8
24 0 29 4 29 25 l0 25 -130 0 -130 0 0 -25z"/>
</g>
</svg>
